<svg version="1.1" viewBox="0.0 0.0 960.0 540.0" fill="none" stroke="none" stroke-linecap="square" stroke-miterlimit="10" xmlns:xlink="http://www.w3.org/1999/xlink" xmlns="http://www.w3.org/2000/svg"><clipPath id="g928126fe5b_0_69.0"><path d="m0 0l960.0 0l0 540.0l-960.0 0l0 -540.0z" clip-rule="nonzero"/></clipPath><g clip-path="url(#g928126fe5b_0_69.0)"><path fill="#ffffff" d="m0 0l960.0 0l0 540.0l-960.0 0z" fill-rule="evenodd"/><path fill="#90ee90" d="m89.47769 201.74016l308.47244 0l0 16.944885l-308.47244 0z" fill-rule="evenodd"/><path fill="#90ee90" d="m596.8688 201.74016l277.54327 0l0 16.944885l-277.54327 0z" fill-rule="evenodd"/><path fill="#90ee90" d="m89.47769 208.25984l16.944878 0l0 258.42517l-16.944878 0z" fill-rule="evenodd"/><path fill="#90ee90" d="m104.173225 449.74014l770.86615 0l0 16.944885l-770.86615 0z" fill-rule="evenodd"/><path fill="#90ee90" d="m857.47766 208.25984l16.944885 0l0 258.42517l-16.944885 0z" fill-rule="evenodd"/><g filter="url(#shadowFilter-g928126fe5b_0_69.1)"><use xlink:href="#g928126fe5b_0_69.1" transform="matrix(1.0 0.0 0.0 1.0 0.6180338621765297 1.902113065944882)"/></g><defs><filter id="shadowFilter-g928126fe5b_0_69.1" filterUnits="userSpaceOnUse"><feGaussianBlur in="SourceAlpha" stdDeviation="1.5" result="blur"/><feComponentTransfer in="blur" color-interpolation-filters="sRGB"><feFuncR type="linear" slope="0" intercept="0.31764707"/><feFuncG type="linear" slope="0" intercept="0.69411767"/><feFuncB type="linear" slope="0" intercept="0.28235295"/><feFuncA type="linear" slope="0.54" intercept="0"/></feComponentTransfer></filter></defs><g id="g928126fe5b_0_69.1"><path fill="#90ee90" d="m132.68161 314.43182l-7.16716 101.15155l11.857956 0l2.7621002 -39.913452c1.8572693 -25.420197 2.785904 -40.076294 2.785904 -43.968323l14.929611 43.968323l13.024704 37.66617l11.26268 0l13.739044 -37.66617c5.460678 -15.112091 10.778503 -30.069427 15.953476 -44.8721l3.5002441 44.8721l3.3811798 39.913452l11.834152 0l-8.619644 -101.15155l-15.072464 0l-13.596176 36.908966c-5.460678 15.014374 -11.024567 30.728943 -16.69162 47.1438l-15.786804 -47.1438l-13.024719 -36.908966z" fill-rule="evenodd"/><path fill="#90ee90" d="m291.8451 323.885c10.048309 0 17.850433 3.6070557 23.406372 10.821106c5.571808 7.1977844 8.357727 17.147644 8.357727 29.849579c0 12.701965 -2.762085 22.659973 -8.286285 29.874023c-5.5083313 7.1977844 -13.278687 10.796661 -23.311127 10.796661c-9.667328 0 -17.405975 -3.6477356 -23.215881 -10.943207c-5.7940674 -7.3117676 -8.691071 -17.220917 -8.691071 -29.727478c0 -12.604248 2.8017883 -22.529663 8.405334 -29.776306c5.6194153 -7.262909 13.397736 -10.894379 23.33493 -10.894379zm0 -11.407318c-13.556488 0 -24.311188 4.706238 -32.26413 14.118713c-7.937042 9.396179 -11.905579 22.049286 -11.905579 37.95929c0 15.812317 4.0478973 28.473572 12.143707 37.983734c8.095795 9.4938965 18.82669 14.240845 32.192688 14.240845c13.556488 0 24.303253 -4.7225037 32.240326 -14.167572c7.9529114 -9.461304 11.929382 -22.147003 11.929382 -38.057007c0 -16.00772 -3.928833 -28.685242 -11.78653 -38.032562c-7.841797 -9.363647 -18.691772 -14.045441 -32.549866 -14.045441z" fill-rule="evenodd"/><path fill="#90ee90" d="m379.77493 324.93536c14.731171 0 22.09674 6.7499695 22.09674 20.249847c0 5.911316 -1.7858276 10.747833 -5.3575134 14.509552c-3.5557861 3.745453 -8.699005 5.618164 -15.429626 5.618164l-14.905792 0l0 -40.377563zm-25.454163 -10.50354l0 101.15155l11.857971 0l0 -39.913452l15.358215 0l24.1445 39.913452l14.191467 0l-25.906555 -41.867615c6.2385254 -2.0029907 11.06427 -5.4553223 14.477203 -10.356964c3.4129333 -4.9016724 5.2225647 -10.853668 5.4289246 -17.856018c0 -9.705597 -2.9525757 -17.310486 -8.857727 -22.814667c-5.905182 -5.504181 -14.564514 -8.256287 -25.977997 -8.256287z" fill-rule="evenodd"/><path fill="#90ee90" d="m435.37186 314.43182l0 101.15155l11.857971 0l0 -101.15155z" fill-rule="evenodd"/><path fill="#90ee90" d="m470.6259 314.43182l0 101.15155l11.857971 0l0 -42.624847c0 -18.906372 -0.24606323 -33.56247 -0.7381592 -43.968292l0 0l2.4763794 4.641083c1.7620239 3.2080688 4.7384033 8.492401 8.929169 15.853027c4.1907654 7.34433 8.778381 15.266785 13.762848 23.767303l24.716034 42.331726l14.929565 0l0 -101.15155l-11.857971 0l0 42.771393c0 19.411194 0.1984253 33.969604 0.5952759 43.6752l-25.025513 -43.821747l-24.716003 -42.624847z" fill-rule="evenodd"/><path fill="#90ee90" d="m613.56213 312.62424c-14.048584 0 -25.684265 4.877228 -34.907166 14.631683c-9.20697 9.754456 -13.810486 22.28543 -13.810486 37.592896c0 16.121735 4.6273193 28.807404 13.881958 38.057007c9.270447 9.249634 21.517334 13.874451 36.7406 13.874451c12.477051 0 22.668213 -3.0533447 30.573547 -9.160065l-0.1428833 -0.43966675l0.1428833 0l0 -48.316284l-33.50232 0l0 10.650085l21.644348 0l0 31.51062c-5.651184 2.703247 -11.794434 4.0548706 -18.42981 4.0548706c-12.0008545 0 -21.414185 -3.574463 -28.240051 -10.723389c-6.8258667 -7.165222 -10.238831 -17.001068 -10.238831 -29.50763c0 -12.197113 3.4605713 -21.967865 10.381714 -29.312195c6.9369507 -7.360626 15.913757 -11.040924 26.93042 -11.040924c10.524536 0 19.787048 2.6950989 27.787598 8.085266l0 -13.043915c-7.6036987 -4.6085205 -17.20752 -6.9128113 -28.811523 -6.9128113z" fill-rule="evenodd"/><path fill="#90ee90" d="m667.1011 314.43182l0 101.15155l11.85791 0l0 -45.77591l47.83667 0l0 45.77591l11.857971 0l0 -101.15155l-11.857971 0l0 44.432434l-47.83667 0l0 -44.432434z" fill-rule="evenodd"/><path fill="#90ee90" d="m797.6003 324.17813l15.358215 48.63385l1.9049072 5.8624268l-34.954834 0l1.8811035 -5.7158813c9.365723 -28.22113 14.635925 -44.481262 15.810608 -48.780396zm-8.19104 -9.746307l-34.3833 101.15155l12.738953 0l8.762512 -26.551971l41.69336 0l8.643433 26.551971l12.715149 0l-33.788025 -101.15155z" fill-rule="evenodd"/></g><path fill="#000000" fill-opacity="0.0" d="m439.30447 274.69553c0 -40.56691 21.77951 -60.850388 43.55905 -81.13385c21.77951 -20.283463 43.55902 -40.566925 43.55902 -81.13386" fill-rule="evenodd"/><path stroke="#90ee90" stroke-width="8.0" stroke-linejoin="round" stroke-linecap="butt" d="m439.30447 274.69553c0 -40.56691 21.77951 -60.850388 43.55905 -81.13385c21.77951 -20.283463 43.55902 -40.566925 43.55902 -81.13386" fill-rule="evenodd"/><path fill="#90ee90" d="m528.62787 97.381096l1.0158081 -0.1336441l2.744873 -0.29579926l1.8892212 -0.291008l2.2142334 -0.5315628l2.239502 -0.68289185l2.565857 -0.93141174l2.5897827 -1.0747757l2.638855 -1.369484l2.5769653 -1.8300476l1.2727661 -0.843956l1.1870728 -1.1611404l1.1870117 -1.1611404l1.185669 -1.1531754l1.0685425 -1.3282394l1.1012573 -1.4783249l0.95751953 -1.4940796l0.84783936 -1.6678925l0.84039307 -1.6691437l0.7307129 -1.8429489l0.61834717 -2.0008316l0.48486328 -2.031273l0.47729492 -2.0325165l0.34246826 -2.0549927l0.23144531 -2.2208405l0.06518555 -2.1011925l0.17810059 -4.4891205l-0.25787354 -4.414425l-0.416687 -4.2935257l-0.5604248 -4.3092804l-0.71917725 -4.188385l-0.7921753 -3.7503052l-0.95092773 -3.6294098l-1.5601196 -5.9821186l-1.322876 -3.9860706l-0.46905518 -1.4370728l-1.2728271 0.8439598l-3.4742432 2.1307812l-4.963806 3.3970604l-2.784851 2.2456493l-3.0873413 2.3507843l-3.1289673 2.6467476l-3.1603394 2.7888641l-3.0733032 3.0980873l-2.9573975 3.2811089l-2.678833 3.3193398l-1.2838745 1.7425919l-1.1428833 1.7742805l-1.0318604 1.9401283l-1.0066528 1.7887878l-0.8717041 1.811264l-0.7546387 1.9863243l-0.5944824 1.85746l-0.45343018 1.8891487l-0.3171997 1.903656l-0.29333496 1.7602844l-0.02355957 1.8052368l0.009155273 1.6551437l-0.016113281 1.8064804l0.2850952 1.7093048l0.30285645 1.5567245l0.31030273 1.5579681l0.9142456 3.017517l1.0819092 2.8899078l1.2645874 2.6256256l1.3136597 2.330925l1.3552856 2.0349731l1.3880005 1.8848801l1.1659546 1.5531845l1.9098511 2.127365l0.86846924 0.75048065z" fill-rule="evenodd"/><path fill="#90ee90" d="m532.8075 148.52715l0.5550537 0.8612213l1.4407959 2.3551788l1.0706787 1.5836029l1.427124 1.774643l1.574707 1.7327423l1.9389038 1.9215851l2.0787354 1.881897l2.36615 1.8003082l2.7561035 1.5474701l1.3070679 0.78993225l1.55719 0.5767975l1.55719 0.5767822l1.5494385 0.57899475l1.6575928 0.39823914l1.807312 0.36364746l1.7600708 0.22698975l1.8703613 0.05354309l1.8682861 0.046218872l1.9785156 -0.12721252l2.0733032 -0.29626465l2.0437012 -0.4300232l2.041565 -0.43733215l2.0042725 -0.5688782l2.1068115 -0.7401428l1.9274902 -0.83929443l4.1347046 -1.7579956l3.8807373 -2.120285l3.7036133 -2.212143l3.656433 -2.348816l3.479187 -2.4406586l3.052002 -2.319397l2.8747559 -2.4112701l4.741455 -3.9677582l3.038269 -2.8999329l1.0986938 -1.0384216l-1.3070679 -0.78993225l-3.41156 -2.2301636l-5.193115 -3.0354614l-3.2207031 -1.5577698l-3.4450684 -1.7862854l-3.7304077 -1.6973877l-3.8723755 -1.6650162l-4.114624 -1.454071l-4.230591 -1.2711182l-4.146118 -1.0028915l-2.1242676 -0.4158249l-2.0926514 -0.2747574l-2.1951294 -0.103507996l-2.0475464 -0.14540863l-2.0101929 -0.013847351l-2.1183472 0.16690826l-1.9334717 0.2565689l-1.9017334 0.39764404l-1.8566895 0.5269928l-1.7168579 0.4873047l-1.6421509 0.750412l-1.4924927 0.71582794l-1.6400757 0.75772095l-1.4234619 0.9884491l-1.2779541 0.93925476l-1.27594 0.9465637l-2.3372192 2.1165314l-2.1502686 2.2135162l-1.833252 2.265686l-1.5457764 2.1840973l-1.260437 2.0951996l-1.1107788 2.0606232l-0.9057617 1.7181396l-1.1069336 2.6360474l-0.30725098 1.1059875z" fill-rule="evenodd"/><path fill="#90ee90" d="m497.944 150.94958l-1.0075684 0.18588257l-2.7025146 0.5644531l-1.8869934 0.30532837l-2.2703247 0.17663574l-2.3410034 0.04043579l-2.7280579 -0.09542847l-2.7949524 -0.22445679l-2.9325256 -0.48970032l-3.015564 -0.94692993l-1.4709473 -0.4106903l-1.4870911 -0.7388916l-1.4871216 -0.7388916l-1.4833679 -0.7317047l-1.4258728 -0.93437195l-1.5032349 -1.0670929l-1.3713684 -1.1263428l-1.3206177 -1.3255157l-1.3138733 -1.32901l-1.263092 -1.5281677l-1.204895 -1.7129822l-1.0872192 -1.7830963l-1.0804443 -1.7865906l-0.9590759 -1.8495331l-0.90460205 -2.0415344l-0.7095032 -1.9789276l-1.552887 -4.21595l-1.1150208 -4.279251l-0.9267273 -4.2131577l-0.79486084 -4.272438l-0.60653687 -4.2063446l-0.4020996 -3.8120651l-0.21380615 -3.7459717l-0.35928345 -6.1720047l0.030090332 -4.19989l0.0034179688 -1.5117493l1.4709473 0.4106903l3.9618835 0.95653534l5.769165 1.7022324l3.3414307 1.2782669l3.6615906 1.28508l3.792389 1.5538177l3.8660278 1.6793594l3.878479 2.0003815l3.824646 2.210205l3.5714111 2.3324356l1.7584839 1.262207l1.6340332 1.3358154l1.5795593 1.5278091l1.5089111 1.3916016l1.3875122 1.4545517l1.3300171 1.657196l1.13797 1.5839462l1.0135803 1.6575546l0.88842773 1.7133331l0.8215332 1.5842972l0.57873535 1.7101974l0.5013428 1.5774841l0.57199097 1.7136917l0.25552368 1.7140427l0.19165039 1.5743408l0.184906 1.5778351l0.06011963 3.152542l-0.13867188 3.082779l-0.39389038 2.8876495l-0.5314331 2.622406l-0.66223145 2.353653l-0.739624 2.2209625l-0.63061523 1.8369751l-1.1613159 2.612442l-0.5949402 0.9816284z" fill-rule="evenodd"/><path fill="#90ee90" d="m492.59494 210.66649l0.5130005 0.8868866l1.3258667 2.4216309l0.99331665 1.6331787l1.3400879 1.8411255l1.489563 1.806366l1.8442383 2.0124817l1.9858093 1.9795532l2.276825 1.9118805l2.6784668 1.6780853l1.2675781 0.85180664l1.5276184 0.6509247l1.5276184 0.6509247l1.5197754 0.652771l1.6364746 0.47740173l1.7877197 0.45005798l1.7470703 0.31129456l1.8656006 0.14334106l1.8638306 0.13594055l1.9823608 -0.03201294l2.085022 -0.19628906l2.0619507 -0.33132935l2.0602417 -0.3387146l2.0292969 -0.47192383l2.1398315 -0.638031l1.9656372 -0.7457123l4.2142944 -1.557251l3.9781494 -1.9313354l3.805603 -2.0315857l3.7650146 -2.1703644l3.5924072 -2.27063l3.159912 -2.1700287l2.9873047 -2.2702942l4.9266357 -3.7352753l3.1740723 -2.750534l1.1473389 -0.9844208l-1.2675781 -0.85180664l-3.300293 -2.391449l-5.0410767 -3.2814178l-3.1420288 -1.7106628l-3.3551636 -1.9497223l-3.6444092 -1.8746338l-3.7877197 -1.8491058l-4.039917 -1.6500702l-4.1644897 -1.4728851l-4.0930176 -1.2009277l-2.1018066 -0.517395l-2.0769653 -0.37498474l-2.187561 -0.2088623l-2.038086 -0.24360657l-2.0072021 -0.1104126l-2.1239014 0.06492615l-1.9434814 0.16337585l-1.9186401 0.3058014l-1.8798218 0.43714905l-1.7382202 0.4042511l-1.6763306 0.6706238l-1.525116 0.64328l-1.6745911 0.6780243l-1.4693298 0.91889954l-1.3215942 0.8767395l-1.3198853 0.88414l-2.4362793 2.0017395l-2.2541199 2.1075897l-1.9400024 2.174942l-1.6489563 2.107254l-1.3596802 2.0321808l-1.2085266 2.004837l-0.9873047 1.6725769l-1.2323608 2.579773l-0.3600769 1.08992z" fill-rule="evenodd"/><path fill="#90ee90" d="m457.944 198.94958l-1.0075684 0.18588257l-2.7025146 0.5644531l-1.8869934 0.30532837l-2.2703247 0.17663574l-2.3410034 0.04043579l-2.7280579 -0.09542847l-2.7949524 -0.22445679l-2.9325256 -0.48970032l-3.015564 -0.94692993l-1.4709473 -0.4106903l-1.4870911 -0.7388916l-1.4871216 -0.7388916l-1.4833679 -0.7317047l-1.4258728 -0.93437195l-1.5032349 -1.0670929l-1.3713684 -1.1263428l-1.3206177 -1.3255157l-1.3138733 -1.32901l-1.263092 -1.5281677l-1.204895 -1.7129822l-1.0872192 -1.7830963l-1.0804443 -1.7865906l-0.9590759 -1.8495331l-0.90460205 -2.0415344l-0.7095032 -1.9789276l-1.552887 -4.2159576l-1.1150208 -4.279236l-0.9267273 -4.2131653l-0.79486084 -4.2724304l-0.60653687 -4.2063446l-0.4020996 -3.8120728l-0.21380615 -3.7459717l-0.35928345 -6.1720123l0.030090332 -4.19989l0.0034179688 -1.5117493l1.4709473 0.41070557l3.9618835 0.9565277l5.769165 1.7022247l3.3414307 1.2782745l3.6615906 1.28508l3.792389 1.5538177l3.8660278 1.6793671l3.878479 2.0003815l3.824646 2.210205l3.5714111 2.332428l1.7584839 1.262207l1.6340332 1.3358154l1.5795593 1.5278168l1.5089111 1.3916016l1.3875122 1.4545441l1.3300171 1.657196l1.13797 1.5839386l1.0135803 1.6575623l0.88842773 1.7133331l0.8215332 1.5843048l0.57873535 1.7101898l0.5013428 1.5774841l0.57199097 1.7136841l0.25552368 1.7140503l0.19165039 1.5743408l0.184906 1.5778351l0.06011963 3.152542l-0.13867188 3.082779l-0.39389038 2.8876495l-0.5314331 2.622406l-0.66223145 2.353653l-0.739624 2.2209625l-0.63061523 1.8369751l-1.1613159 2.612442l-0.5949402 0.9816284z" fill-rule="evenodd"/></g></svg>